<svg xmlns="http://www.w3.org/2000/svg" width="42.07" height="42.07" viewBox="0 0 42.07 42.07"><g transform="translate(0 -0.004)"><g transform="translate(0 0.004)"><path d="M42.07,10.064A.915.915,0,0,0,42,9.724a.9.9,0,0,0-.071-.116.923.923,0,0,0-.1-.155L33.6.308a.912.912,0,0,0-.68-.3H17.376a2.747,2.747,0,0,0-2.744,2.744V7.32H2.744A2.747,2.747,0,0,0,0,10.064V39.33a2.747,2.747,0,0,0,2.744,2.744H24.693a2.747,2.747,0,0,0,2.744-2.744V34.757H39.326a2.747,2.747,0,0,0,2.744-2.744V11.9s0,0,0,0ZM25.608,39.33a.916.916,0,0,1-.915.915H2.744a.916.916,0,0,1-.915-.915V10.064a.916.916,0,0,1,.915-.915H14.633V19.21a.915.915,0,0,0,.915.915h10.06Zm0-21.035H16.462V9.15H17l8.61,8.611ZM40.24,32.013a.915.915,0,0,1-.915.915H27.437V19.251c0-.014,0-.027,0-.041V17.378a.908.908,0,0,0-.25-.625s0,0,0,0v0l0,0-.013-.013L18.024,7.589a.917.917,0,0,0-.648-.269h-.915V2.748a.916.916,0,0,1,.915-.915h12.8v10.06a.915.915,0,0,0,.915.915H40.24Zm0-21.035H32.009V1.833h.508l7.724,8.582Z" transform="translate(0 -0.004)" fill="#fff"/></g></g></svg>