<svg xmlns="http://www.w3.org/2000/svg" width="51.078" height="51.078" viewBox="0 0 51.078 51.078"><g transform="translate(-2 -2)"><path d="M50.524,38.751V8.81a.854.854,0,0,0-.851-.851h-8a3.738,3.738,0,0,0,1.8-3.014A3.028,3.028,0,0,0,40.309,2c-3.116,0-5,2.613-5.959,4.546C33.388,4.613,31.506,2,28.39,2a3.028,3.028,0,0,0-3.167,2.946,3.738,3.738,0,0,0,1.8,3.014h-8a.854.854,0,0,0-.851.851V38.248l-2.9,2.911H10.513v-.851a.854.854,0,0,0-.851-.851H2.851A.854.854,0,0,0,2,40.309V52.227a.854.854,0,0,0,.851.851h6.81a.854.854,0,0,0,.851-.851H38.606a.806.806,0,0,0,.417-.111l12.25-6.887a3.535,3.535,0,0,0-.749-6.478ZM8.81,51.376H3.7V41.16H8.81ZM40.309,3.7a1.338,1.338,0,0,1,1.464,1.243A2.355,2.355,0,0,1,40.36,6.784a10.651,10.651,0,0,1-4.776,1.141C36.256,6.359,37.772,3.7,40.309,3.7ZM26.926,4.946A1.338,1.338,0,0,1,28.39,3.7c2.52,0,4.044,2.656,4.725,4.222a10.651,10.651,0,0,1-4.776-1.141A2.355,2.355,0,0,1,26.926,4.946ZM19.877,9.662H48.822v29a3.62,3.62,0,0,0-.894.272l-10.36,4.784H33.7a3.829,3.829,0,0,0-3.184-5.959H19.877ZM50.439,43.739,38.385,50.524H10.513V42.862h5.108a.879.879,0,0,0,.6-.247l3.15-3.158H30.519a2.128,2.128,0,1,1,0,4.257H23.283v1.7H37.755a.871.871,0,0,0,.358-.077l10.531-4.861a1.829,1.829,0,0,1,.766-.17h.128a1.832,1.832,0,0,1,.9,3.431Z" fill="#242166"/><path d="M50.995,19.355l-5.108-5.108a.879.879,0,0,0-.6-.247H29.959a.879.879,0,0,0-.6.247l-5.108,5.108a.855.855,0,0,0-.034,1.166L36.94,34.942a.851.851,0,0,0,1.362,0L51.029,20.521A.855.855,0,0,0,50.995,19.355ZM43.9,15.7l-2.111,4.222L39.153,15.7ZM40.336,20.81H34.905l2.716-4.35ZM36.088,15.7l-2.639,4.222L31.338,15.7Zm-6.359.579,2.094,4.205L26.579,19.44Zm-2.571,5.006,5.55,1.115,2.775,8.326ZM37.621,31.741l-3.073-9.228h6.146Zm2.137-1.013L42.533,22.4l5.55-1.115Zm3.661-10.241,2.094-4.205,3.158,3.158Z" transform="translate(-3.271 -1.784)" fill="#c91f66"/><path d="M48.959,34h-1.7A4.258,4.258,0,0,1,43,38.257v1.7a4.258,4.258,0,0,1,4.257,4.257h1.7a4.258,4.258,0,0,1,4.257-4.257v-1.7A4.258,4.258,0,0,1,48.959,34Zm-.851,7.151a6.015,6.015,0,0,0-2.043-2.043,6.015,6.015,0,0,0,2.043-2.043,6.015,6.015,0,0,0,2.043,2.043A6.015,6.015,0,0,0,48.108,41.151Z" transform="translate(-6.097 -4.758)" fill="#21dad7"/></g></svg>