<svg xmlns="http://www.w3.org/2000/svg" xmlns:xlink="http://www.w3.org/1999/xlink" width="93.448" height="88.822" viewBox="0 0 93.448 88.822"><defs><linearGradient id="a" y1="0.5" x2="1" y2="0.5" gradientUnits="objectBoundingBox"><stop offset="0" stop-color="#fcdbe7"/><stop offset="0.079" stop-color="#f9c0d3"/><stop offset="0.156" stop-color="#f7adc5"/><stop offset="0.21" stop-color="#f7a7c1"/><stop offset="0.373" stop-color="#f7abc3"/><stop offset="0.544" stop-color="#f8b7cc"/><stop offset="0.719" stop-color="#faccdb"/><stop offset="0.895" stop-color="#fde9f0"/><stop offset="1" stop-color="#fff"/></linearGradient><linearGradient id="b" x1="0.007" y1="0.042" x2="0.975" y2="1.016" gradientUnits="objectBoundingBox"><stop offset="0" stop-color="#fff"/><stop offset="0.105" stop-color="#fde9f0"/><stop offset="0.281" stop-color="#faccdb"/><stop offset="0.456" stop-color="#f8b7cc"/><stop offset="0.627" stop-color="#f7abc3"/><stop offset="0.79" stop-color="#f7a7c1"/><stop offset="0.844" stop-color="#f7adc5"/><stop offset="0.921" stop-color="#f9c0d3"/><stop offset="1" stop-color="#fcdbe7"/></linearGradient><linearGradient id="c" x1="1.032" y1="1.164" x2="0.374" y2="0.343" gradientUnits="objectBoundingBox"><stop offset="0" stop-color="#f7a7c1"/><stop offset="1" stop-color="#fff"/></linearGradient></defs><g transform="translate(-1154.897 -2045.908)"><path d="M1226.5,2099.274a9.071,9.071,0,0,0,.186-.965c.012-.082.022-.164.032-.247a10.145,10.145,0,0,0,.075-1.013v-.013c.007-.344-.007-.7-.03-1.051-.007-.09-.013-.179-.021-.269-.031-.361-.072-.728-.133-1.1l0-.023c-.062-.367-.141-.741-.229-1.118-.023-.1-.046-.192-.071-.289-.1-.384-.2-.771-.329-1.165l-.013-.035c-.123-.384-.263-.772-.412-1.163q-.057-.149-.117-.3c-.159-.4-.327-.8-.512-1.211l0-.009-.016-.035c-.194-.422-.4-.847-.625-1.274-.049-.094-.1-.189-.147-.282q-.341-.644-.719-1.29c-.014-.024-.026-.048-.041-.073-.041-.069-.088-.139-.13-.21q-.252-.417-.517-.834c-.076-.118-.151-.235-.228-.353q-.287-.439-.59-.877c-.044-.064-.083-.126-.128-.189-.013-.02-.028-.039-.042-.059q-.363-.515-.749-1.03c-.048-.064-.1-.129-.149-.193q-.318-.42-.648-.834c-.03-.036-.056-.073-.085-.108s-.056-.063-.081-.1q-.784-.97-1.644-1.923c-.03-.034-.056-.069-.087-.1s-.054-.054-.078-.082q-.924-1.013-1.924-2l-.019-.021-.013-.012c-.344-.335-.7-.668-1.052-1-.107-.1-.215-.194-.322-.292q-.389-.351-.787-.7c-.067-.057-.128-.116-.195-.173-.049-.042-.1-.082-.15-.124-.439-.374-.885-.745-1.34-1.106-.047-.038-.1-.075-.144-.113q-.634-.5-1.286-.978c-.063-.047-.124-.1-.187-.142-.048-.035-.1-.068-.147-.1-.422-.305-.848-.607-1.282-.9-.567-.383-1.132-.744-1.7-1.089-.183-.113-.365-.216-.547-.324-.381-.227-.76-.449-1.137-.657-.212-.117-.422-.228-.633-.339q-.521-.278-1.037-.534c-.217-.107-.432-.21-.646-.312q-.509-.239-1.013-.456c-.207-.09-.414-.18-.62-.264-.355-.146-.7-.278-1.054-.407-.177-.065-.356-.136-.532-.2q-.691-.24-1.362-.435c-.059-.017-.12-.038-.179-.055q-.707-.2-1.391-.354l-.094-.017c-.221-.048-.433-.08-.65-.122-.287-.053-.576-.111-.856-.15-.219-.032-.429-.048-.643-.072s-.446-.058-.661-.073c-.052,0-.1,0-.152-.005-.13-.008-.256-.01-.385-.013-.3-.012-.6-.015-.9-.01-.14,0-.28.009-.417.017-.1.005-.212,0-.314.011-.214.016-.42.045-.626.072-.069.009-.14.013-.207.024-.32.047-.634.1-.935.176-.047.012-.09.027-.136.04-.082.02-.159.046-.24.068-.277.079-.547.169-.806.27-.073.029-.149.056-.22.086-.039.017-.082.03-.12.047a7.555,7.555,0,0,0-.763.4c-.056.032-.108.07-.163.105-.138.086-.279.169-.41.265-.083.061-.156.13-.237.194s-.14.112-.208.171a6.536,6.536,0,0,0-.685.679l-8.507,9.964a6.557,6.557,0,0,1,.684-.678c.068-.058.139-.115.209-.171a6.7,6.7,0,0,1,.648-.46c.054-.033.105-.071.161-.1a7.505,7.505,0,0,1,.884-.442c.071-.031.146-.057.219-.085q.39-.153.808-.272c.079-.023.158-.047.239-.068a10.419,10.419,0,0,1,1.071-.216c.068-.01.14-.015.208-.024.306-.04.619-.067.939-.083.137-.007.277-.012.417-.016.294-.007.594,0,.9.009.128,0,.253.006.383.013.266.017.541.05.815.079.214.022.425.04.643.071.279.04.568.1.853.151.218.041.433.073.654.122.486.106.98.228,1.484.371.062.017.125.04.187.058.445.13.9.273,1.354.432.176.061.356.132.534.2.35.129.7.262,1.054.407.206.083.412.173.618.263q.505.218,1.015.456c.215.1.43.2.646.312.343.169.689.348,1.036.532.211.112.423.223.635.34.377.209.756.432,1.136.657.182.109.364.212.548.324.563.346,1.127.706,1.694,1.09.434.293.861.595,1.285.9l.329.242q.654.482,1.288.98l.143.111c.456.362.9.732,1.341,1.107.116.1.23.2.344.3q.4.346.788.7c.107.1.215.192.321.291q.536.493,1.054,1l.028.03c.669.654,1.31,1.322,1.926,2l.167.184q.857.951,1.643,1.923c.056.068.112.135.166.2q.332.416.647.833c.05.065.1.129.15.2q.386.515.75,1.032c.057.08.111.163.167.244.2.293.4.585.592.879.077.117.152.236.228.353q.265.418.516.834c.057.1.115.19.171.285q.38.645.72,1.289c.049.093.1.186.144.279.221.428.433.855.627,1.278l.02.041c.185.407.353.811.512,1.212q.06.149.117.3c.148.389.288.777.412,1.16l.013.04c.125.392.232.78.328,1.164.025.1.048.193.071.289.089.377.169.75.229,1.117l0,.023c.061.373.1.738.134,1.1.009.091.015.181.02.27.024.356.038.707.03,1.051v.014c-.007.345-.036.682-.076,1.013-.009.082-.021.165-.032.246a9.109,9.109,0,0,1-.185.966,7.035,7.035,0,0,1-1.447,2.856l8.507-9.964A7.056,7.056,0,0,0,1226.5,2099.274Z" fill="url(#a)"/><path d="M1235.437,2130.3c.066-.063.131-.126.2-.19.23-.232.454-.469.666-.717l8.506-9.966c-.213.249-.436.486-.665.717-.064.065-.13.128-.2.191-.188.182-.381.358-.58.529-.055.047-.108.095-.163.141q-.361.3-.746.577c-.369.265-.754.512-1.153.744-.1.058-.2.111-.3.167q-.481.267-.989.5c-.12.056-.239.113-.362.166-.434.187-.877.364-1.337.517l-.042.013c-.449.149-.914.279-1.387.4-.138.034-.277.065-.417.1-.413.094-.836.177-1.267.249-.112.018-.221.041-.334.057q-.8.12-1.627.187c-.115.01-.234.014-.349.022q-.832.056-1.7.063c-.107,0-.213,0-.322,0-.642,0-1.3-.028-1.964-.072-.22-.014-.442-.032-.664-.05s-.453-.038-.683-.062c-.259-.027-.522-.058-.784-.092-.232-.029-.462-.058-.7-.09-.267-.038-.536-.083-.807-.127-.235-.038-.47-.075-.708-.118-.274-.049-.551-.106-.827-.161-.239-.048-.476-.095-.718-.147-.145-.032-.292-.068-.438-.1-.81-.185-1.63-.389-2.463-.623l-.1-.027c-.847-.241-1.708-.513-2.576-.805l-.444-.148q-1.259-.436-2.545-.943c-.162-.064-.326-.13-.489-.2-.877-.354-1.761-.727-2.652-1.129-.09-.041-.18-.085-.269-.126q-1.306-.6-2.629-1.265c-.111-.056-.221-.109-.331-.165-.9-.461-1.808-.95-2.719-1.459l-.519-.292q-1.355-.77-2.72-1.609c-.152-.094-.3-.191-.457-.287-.955-.6-1.912-1.21-2.871-1.859-.882-.594-1.747-1.208-2.606-1.829-.226-.164-.45-.331-.674-.5q-1.326-.975-2.616-1.989c-.1-.075-.194-.149-.29-.225-.926-.735-1.831-1.488-2.725-2.249-.233-.2-.463-.4-.694-.6q-.812-.7-1.6-1.424c-.217-.2-.437-.392-.652-.59q-1.087-1-2.137-2.023c-.084-.082-.163-.166-.247-.249q-.867-.851-1.7-1.716c-.214-.221-.424-.446-.635-.669-.421-.444-.84-.889-1.25-1.337-.235-.255-.465-.512-.695-.769q-.558-.623-1.1-1.249-.34-.393-.675-.788c-.365-.431-.722-.865-1.075-1.3-.2-.245-.4-.49-.6-.735q-.68-.85-1.326-1.706c-.1-.127-.2-.254-.294-.381q-.785-1.046-1.523-2.1c-.116-.165-.226-.331-.341-.5q-.617-.892-1.2-1.785-.232-.357-.46-.714-.542-.849-1.051-1.7c-.132-.219-.269-.439-.4-.66-.106-.18-.208-.361-.312-.543q-.346-.6-.676-1.2c-.109-.2-.218-.4-.324-.6q-.326-.609-.631-1.216c-.088-.173-.178-.345-.263-.518-.282-.57-.555-1.138-.813-1.7-.017-.036-.031-.072-.048-.108-.236-.521-.46-1.042-.676-1.559-.069-.168-.135-.334-.2-.5q-.246-.613-.474-1.22c-.06-.16-.121-.321-.179-.48-.2-.545-.386-1.089-.558-1.627l-.026-.086c-.161-.511-.309-1.017-.448-1.521-.044-.16-.084-.32-.126-.479q-.154-.587-.285-1.167c-.035-.154-.071-.309-.1-.462-.111-.52-.213-1.037-.3-1.548l-.007-.055c-.079-.493-.143-.979-.2-1.463-.016-.149-.03-.3-.045-.447q-.052-.552-.082-1.094c-.008-.145-.018-.291-.023-.435-.019-.487-.028-.969-.018-1.442v-.023c.011-.466.039-.924.078-1.376.012-.137.027-.273.042-.409.036-.337.079-.671.132-1,.021-.133.04-.266.064-.4.079-.443.169-.88.279-1.307a14.323,14.323,0,0,1,2.939-5.805l-8.506,9.966a14.321,14.321,0,0,0-2.94,5.8c-.11.427-.2.864-.279,1.306-.024.131-.043.265-.064.4-.052.331-.1.664-.133,1-.014.136-.029.27-.041.407-.039.453-.068.911-.078,1.376v.023c-.01.474,0,.958.018,1.443.005.144.014.288.023.432q.031.545.084,1.1c.014.148.027.3.044.444.055.484.118.971.2,1.464,0,.018,0,.036.008.054.083.512.185,1.029.3,1.55.033.152.069.305.1.458.089.388.184.778.286,1.172.042.157.082.315.125.474.139.506.288,1.015.45,1.529.009.026.016.052.024.079.172.539.361,1.083.558,1.628.057.159.118.319.178.478.152.406.31.814.476,1.223.066.166.132.331.2.5.216.518.44,1.038.677,1.561.016.035.031.072.047.107l.01.022c.255.559.525,1.12.8,1.683.086.172.176.346.264.519q.306.605.63,1.213.161.3.327.6c.218.4.443.8.673,1.2.1.183.208.367.316.549.045.077.087.154.132.231.084.141.178.281.262.422q.511.851,1.055,1.7c.152.238.3.475.458.711q.583.892,1.2,1.782c.088.127.168.255.257.382.028.04.06.079.088.119q.738,1.05,1.521,2.094c.1.129.2.256.3.384q.648.852,1.323,1.7c.058.073.112.147.17.219.14.174.289.346.432.52.353.433.709.865,1.073,1.3q.335.394.676.787.541.627,1.1,1.247c.137.151.265.306.4.456.1.105.2.21.3.315q.615.672,1.25,1.337c.212.222.42.446.635.667q.843.871,1.716,1.729c.071.069.139.142.21.211l.024.023q1.049,1.024,2.141,2.026c.214.2.433.392.649.589q.793.716,1.6,1.423c.133.116.26.235.394.349.1.086.2.166.3.251.894.761,1.8,1.513,2.724,2.248.095.076.193.148.289.223q1.289,1.016,2.616,1.99c.128.095.25.195.378.287.1.071.2.138.3.208.859.622,1.725,1.235,2.606,1.83.96.648,1.917,1.264,2.871,1.859.153.095.3.192.457.287q1.364.841,2.719,1.608l.523.294c.91.508,1.818,1,2.718,1.457.112.057.221.11.332.166q1.32.668,2.625,1.264c.091.041.182.086.273.127.891.4,1.774.776,2.65,1.129l.491.2q1.285.505,2.544.941c.149.052.3.1.445.15.867.291,1.727.564,2.574.8l.1.028c.832.233,1.65.438,2.459.621.08.019.165.044.245.063.065.014.128.025.194.039.241.053.479.1.718.147.277.055.554.111.828.16.238.043.472.081.707.119.27.044.538.087.8.126.234.033.466.062.7.09.262.033.524.065.783.093.228.023.454.042.68.061.159.013.322.033.48.044.063,0,.124,0,.187.007.667.044,1.322.069,1.963.072.108,0,.214,0,.322-.005q.865-.005,1.7-.063c.076-.005.157,0,.232-.009.039,0,.077-.01.116-.012q.831-.068,1.626-.187c.115-.018.226-.04.338-.059q.645-.106,1.264-.248c.08-.019.166-.029.245-.048.06-.014.114-.034.172-.048.473-.118.938-.248,1.387-.4l.042-.013c.461-.154.9-.331,1.338-.518.05-.021.1-.037.152-.059.073-.033.137-.073.209-.106.338-.156.668-.323.989-.5.1-.055.205-.109.3-.167.4-.232.785-.479,1.154-.745.017-.013.038-.022.056-.036.237-.172.466-.353.691-.54.055-.045.108-.095.162-.141C1235.056,2130.658,1235.249,2130.482,1235.437,2130.3Z" fill="url(#b)"/><path d="M1212.963,2057.867c23.122,15.62,38.693,40.583,34.781,55.757s-25.824,14.807-48.945-.812-38.705-40.586-34.794-55.756S1189.837,2042.244,1212.963,2057.867Zm-10.572,41.008c11.387,7.693,22.186,7.871,24.112.4s-5.747-19.774-17.133-27.466-22.2-7.883-24.123-.4,5.748,19.771,17.145,27.471" fill="url(#c)"/></g></svg>