<svg xmlns="http://www.w3.org/2000/svg" width="73.28" height="41.292" viewBox="0 0 73.28 41.292"><g transform="translate(-3 -6.5)"><g transform="translate(56.46 13.455)"><path d="M24.607,21.213a6.607,6.607,0,1,1,6.607-6.607A6.626,6.626,0,0,1,24.607,21.213Zm0-9.91a3.121,3.121,0,0,0-3.3,3.3,3.121,3.121,0,0,0,3.3,3.3,3.121,3.121,0,0,0,3.3-3.3A3.121,3.121,0,0,0,24.607,11.3Z" transform="translate(-18 -8)" fill="#21dad7"/></g><g transform="translate(56.46 29.972)"><path d="M36.168,26.213a1.56,1.56,0,0,1-1.652-1.652v-3.3A5.08,5.08,0,0,0,29.562,16.3h-9.91A1.56,1.56,0,0,1,18,14.652,1.56,1.56,0,0,1,19.652,13h9.91a8.178,8.178,0,0,1,8.258,8.258v3.3A1.56,1.56,0,0,1,36.168,26.213Z" transform="translate(-18 -13)" fill="#21dad7"/></g><g transform="translate(9.607 13.455)"><path d="M8.607,21.213a6.607,6.607,0,1,1,6.607-6.607A6.626,6.626,0,0,1,8.607,21.213Zm0-9.91a3.121,3.121,0,0,0-3.3,3.3,3.121,3.121,0,0,0,3.3,3.3,3.121,3.121,0,0,0,3.3-3.3A3.121,3.121,0,0,0,8.607,11.3Z" transform="translate(-2 -8)" fill="#21dad7"/></g><g transform="translate(3 29.972)"><path d="M1.652,26.213A1.56,1.56,0,0,1,0,24.562v-3.3A8.178,8.178,0,0,1,8.258,13h9.91a1.56,1.56,0,0,1,1.652,1.652A1.56,1.56,0,0,1,18.168,16.3H8.258A5.08,5.08,0,0,0,3.3,21.258v3.3A1.56,1.56,0,0,1,1.652,26.213Z" transform="translate(0 -13)" fill="#21dad7"/></g><g transform="translate(29.73 6.5)"><path d="M18.91,26.32A9.733,9.733,0,0,1,9,16.41,9.733,9.733,0,0,1,18.91,6.5a9.733,9.733,0,0,1,9.91,9.91A9.733,9.733,0,0,1,18.91,26.32Zm0-16.517a6.607,6.607,0,1,0,6.607,6.607A6.626,6.626,0,0,0,18.91,9.8Z" transform="translate(-9 -6.5)" fill="#c91f66"/></g><g transform="translate(21.472 31.275)"><path d="M41.185,30.517a1.56,1.56,0,0,1-1.652-1.652V22.258A5.08,5.08,0,0,0,34.578,17.3H14.758A5.08,5.08,0,0,0,9.8,22.258v6.607a1.56,1.56,0,0,1-1.652,1.652A1.56,1.56,0,0,1,6.5,28.865V22.258A8.178,8.178,0,0,1,14.758,14h19.82a8.178,8.178,0,0,1,8.258,8.258v6.607A1.56,1.56,0,0,1,41.185,30.517Z" transform="translate(-6.5 -14)" fill="#c91f66"/></g></g></svg>