<svg xmlns="http://www.w3.org/2000/svg" width="94.766" height="94.766" viewBox="0 0 94.766 94.766">
  <g id="Group_7" data-name="Group 7" transform="translate(-153.477 -395.869)">
    <g id="Group_5" data-name="Group 5" transform="translate(153.477 395.869)">
      <circle id="Ellipse_1" data-name="Ellipse 1" cx="47.383" cy="47.383" r="47.383" fill="#ff9416"/>
      <g id="Group_3" data-name="Group 3" transform="translate(23.016 14.166)">
        <g id="Group_2" data-name="Group 2" transform="translate(0)">
          <g id="Group_1" data-name="Group 1">
            <path id="Path_1" data-name="Path 1" d="M252.792,472.432q0,7.177-5.75,10.715a25.646,25.646,0,0,1-10.457,3.167v7.121h-6v-6.761c-.236.006-.472.006-.713.006h-5.712v6.756h-6v-6.756H204.059V482.81h3.285a8.085,8.085,0,0,0,1.663-.163,2.735,2.735,0,0,0,1.308-.657,3.427,3.427,0,0,0,.882-1.421,7.653,7.653,0,0,0,.331-2.488V443.213a7.022,7.022,0,0,0-.331-2.359,3.342,3.342,0,0,0-.9-1.4,3.16,3.16,0,0,0-1.331-.7,6.552,6.552,0,0,0-1.623-.2h-3.285v-3.835h14.107V427h6v7.722h3.285c1.084,0,2.128.022,3.139.067V427h6v8.373a24.8,24.8,0,0,1,8.03,2.544,10.679,10.679,0,0,1,5.751,10.024,11.215,11.215,0,0,1-.724,4.212,9.013,9.013,0,0,1-2.05,3.094,12.606,12.606,0,0,1-3.19,2.218,23.755,23.755,0,0,1-4.128,1.567v.354a23.5,23.5,0,0,1,5.065,1.758,15.112,15.112,0,0,1,3.948,2.741,11.5,11.5,0,0,1,2.583,3.746A12.023,12.023,0,0,1,252.792,472.432Z" transform="translate(-204.059 -427)" fill="#fff"/>
          </g>
        </g>
      </g>
      <g id="Group_4" data-name="Group 4" transform="translate(32.642 24.926)">
        <path id="Path_2" data-name="Path 2" d="M251.8,508.077c.759,5.685-2.888,11.989-9.2,13.091a11.308,11.308,0,0,1-12.637-14.833l-3.743,1.673-1.007-3.076,7.333-2.789,2.362-.9.85,2.621,2.355,7.271-3.006,1.02-1.657-5.288a7.867,7.867,0,1,0,14.957,1.8,8.406,8.406,0,0,0-.744-2.231,10.946,10.946,0,0,0-4.959-4.888q-.322-1.8-.645-3.605A12.27,12.27,0,0,1,251.8,508.077Z" transform="translate(-225.212 -476.423)" fill="#ff9416"/>
        <path id="Path_3" data-name="Path 3" d="M231.449,463.908c-.76-5.685,2.888-11.989,9.2-13.09a11.308,11.308,0,0,1,12.637,14.833l3.743-1.673,1.007,3.076-7.333,2.789-2.363.9-.85-2.621-2.356-7.271,3.007-1.02,1.657,5.288a7.867,7.867,0,1,0-14.957-1.8,8.406,8.406,0,0,0,.744,2.231,10.946,10.946,0,0,0,4.959,4.888l.646,3.605A12.27,12.27,0,0,1,231.449,463.908Z" transform="translate(-228.557 -450.648)" fill="#ff9416"/>
      </g>
    </g>
  </g>
</svg>
