<svg xmlns="http://www.w3.org/2000/svg" width="44.237" height="44.237" viewBox="0 0 44.237 44.237">
  <g id="Group_7" data-name="Group 7" transform="translate(-153.477 -395.869)">
    <g id="Group_5" data-name="Group 5" transform="translate(153.477 395.869)">
      <circle id="Ellipse_1" data-name="Ellipse 1" cx="22.118" cy="22.118" r="22.118" fill="#ff9416"/>
      <g id="Group_3" data-name="Group 3" transform="translate(10.744 6.613)">
        <g id="Group_2" data-name="Group 2" transform="translate(0)">
          <g id="Group_1" data-name="Group 1">
            <path id="Path_1" data-name="Path 1" d="M226.808,448.208a5.477,5.477,0,0,1-2.684,5,11.971,11.971,0,0,1-4.881,1.479v3.324h-2.8v-3.156c-.11,0-.22,0-.333,0h-2.666v3.154h-2.8v-3.154h-6.585v-1.806h1.533a3.773,3.773,0,0,0,.776-.076,1.277,1.277,0,0,0,.611-.307,1.6,1.6,0,0,0,.412-.663,3.573,3.573,0,0,0,.155-1.161V434.568a3.278,3.278,0,0,0-.155-1.1,1.56,1.56,0,0,0-.419-.655,1.475,1.475,0,0,0-.621-.325,3.058,3.058,0,0,0-.758-.092h-1.533V430.6h6.585V427h2.8v3.6h1.534c.506,0,.993.01,1.465.031V427h2.8v3.909a11.576,11.576,0,0,1,3.749,1.188,4.985,4.985,0,0,1,2.684,4.679,5.235,5.235,0,0,1-.338,1.966,4.207,4.207,0,0,1-.957,1.444,5.886,5.886,0,0,1-1.489,1.036,11.089,11.089,0,0,1-1.927.731v.165a10.965,10.965,0,0,1,2.365.82,7.054,7.054,0,0,1,1.843,1.279,5.367,5.367,0,0,1,1.206,1.749A5.612,5.612,0,0,1,226.808,448.208Z" transform="translate(-204.059 -427)" fill="#fff"/>
          </g>
        </g>
      </g>
      <g id="Group_4" data-name="Group 4" transform="translate(15.237 11.636)">
        <path id="Path_2" data-name="Path 2" d="M237.625,502.675a5.466,5.466,0,0,1-4.3,6.111,5.279,5.279,0,0,1-5.9-6.924l-1.747.781-.47-1.436,3.423-1.3,1.1-.42.4,1.224,1.1,3.394-1.4.476-.773-2.469a3.672,3.672,0,1,0,6.982.841,3.924,3.924,0,0,0-.347-1.041,5.109,5.109,0,0,0-2.315-2.282l-.3-1.683A5.728,5.728,0,0,1,237.625,502.675Z" transform="translate(-225.212 -487.899)" fill="#ff9416"/>
        <path id="Path_3" data-name="Path 3" d="M231.4,456.838a5.466,5.466,0,0,1,4.3-6.111,5.279,5.279,0,0,1,5.9,6.924l1.747-.781.47,1.436-3.423,1.3-1.1.42-.4-1.224-1.1-3.394,1.4-.476.773,2.469a3.672,3.672,0,1,0-6.982-.841,3.924,3.924,0,0,0,.347,1.041,5.11,5.11,0,0,0,2.315,2.282l.3,1.683A5.728,5.728,0,0,1,231.4,456.838Z" transform="translate(-230.046 -450.648)" fill="#ff9416"/>
      </g>
    </g>
  </g>
</svg>
